<?xml version="1.0" encoding="UTF-8"?>
<svg width="512px" height="512px" viewBox="0 0 512 512" version="1.1" xmlns="http://www.w3.org/2000/svg" xmlns:xlink="http://www.w3.org/1999/xlink">
    <!-- Generator: Sketch 58 (84663) - https://sketch.com -->
    <title>logo-light</title>
    <desc>Created with Sketch.</desc>
    <g id="logo-light" stroke="none" stroke-width="1" fill="none" fill-rule="evenodd">
        <g id="Group" transform="translate(108.000000, 26.000000)">
            <path d="M76.3171905,292.069024 L44.9671893,189.914333 L44.1656268,189.914333 L44.6330629,198.757126 C45.4495673,214.680084 45.8578143,225.596464 45.8578143,231.506522 L45.8578143,292.069024 L21.1875008,292.069024 L21.1875008,161.859644 L58.7718773,161.859644 L89.5875036,261.431523 L90.1218786,261.431523 L122.807817,161.859644 L160.392194,161.859644 L160.392194,292.069024 L134.65313,292.069024 L134.65313,230.437772 C134.65313,228.25573 134.678179,225.823226 134.728277,223.140219 L134.786724,220.373709 C134.875787,216.57369 135.276564,206.48004 135.989068,190.092458 L135.187501,190.092458 L101.610942,292.069024 L76.3171905,292.069024 Z M233.690634,215.475271 L260.854698,161.859644 L290.601574,161.859644 L247.40626,241.39246 L247.40626,292.069024 L219.975009,292.069024 L219.975009,242.283085 L176.779695,161.859644 L206.704696,161.859644 L233.690634,215.475271 Z" id="MY" fill="#FFFFFF" fill-rule="nonzero"></path>
            <path d="M58.4437523,436.06903 L44.1468768,436.06903 L44.1468768,405.459654 C44.1468768,397.897116 41.3344048,394.115903 35.7093764,394.115903 C31.7093563,394.115903 28.8187601,395.475265 27.0375011,398.194029 C25.2562421,400.912792 24.365626,405.318998 24.365626,411.412779 L24.365626,436.06903 L10.0687504,436.06903 L10.0687504,363.131527 L24.365626,363.131527 L24.3638256,378.273568 C24.3488223,379.558506 24.2400483,382.183013 24.037501,386.147153 L23.7093759,390.365903 L24.459376,390.365903 C27.646892,385.240877 32.7093416,382.678403 39.6468766,382.678403 C45.8031576,382.678403 50.4749861,384.334636 53.6625021,387.647153 C56.8500182,390.95967 58.4437523,395.709623 58.4437523,401.897154 L58.4437523,436.06903 Z M84.5531284,409.772154 C84.5531284,414.95968 85.4046824,418.881516 87.107816,421.53778 C88.8109495,424.194043 91.5843594,425.522155 95.4281288,425.522155 C99.240648,425.522155 101.982808,424.201855 103.654692,421.561217 C105.326575,418.920579 106.162504,414.99093 106.162504,409.772154 C106.162504,404.584628 105.318763,400.694042 103.631254,398.100279 C101.943746,395.506516 99.1781482,394.209653 95.3343788,394.209653 C91.5218596,394.209653 88.771887,395.498703 87.0843785,398.076841 C85.39687,400.654979 84.5531284,404.553378 84.5531284,409.772154 Z M120.787505,409.772154 C120.787505,418.303447 118.537527,424.975256 114.037505,429.78778 C109.537482,434.600304 103.271919,437.00653 95.2406288,437.00653 C90.2093534,437.00653 85.7718976,435.904979 81.9281283,433.701842 C78.0843589,431.498706 75.1312633,428.334675 73.0687529,424.209655 C71.0062425,420.084634 69.9750028,415.272182 69.9750028,409.772154 C69.9750028,401.209611 72.2093555,394.553427 76.678128,389.803403 C81.1469006,385.053379 87.428088,382.678403 95.5218788,382.678403 C100.553154,382.678403 104.99061,383.772142 108.834379,385.959653 C112.678149,388.147164 115.631244,391.287758 117.693755,395.381528 C119.756265,399.475299 120.787505,404.272126 120.787505,409.772154 Z M169.725007,436.06903 L167.803132,429.365905 L167.053132,429.365905 C165.521874,431.803417 163.350021,433.686211 160.537506,435.014343 C157.724992,436.342474 154.521899,437.00653 150.928131,437.00653 C144.77185,437.00653 140.131271,435.358109 137.006255,432.061217 C133.88124,428.764326 132.318755,424.022186 132.318755,417.834654 L132.318755,383.662778 L146.615631,383.662778 L146.615631,414.272154 C146.615631,418.053423 147.287499,420.889333 148.631256,422.779967 C149.975013,424.670602 152.115616,425.615905 155.053131,425.615905 C159.053151,425.615905 161.943748,424.27998 163.725007,421.608092 C165.506265,418.936204 166.396882,414.50656 166.396882,408.319029 L166.396882,383.662778 L180.693757,383.662778 L180.693757,436.06903 L169.725007,436.06903 Z M232.256259,420.506529 C232.256259,425.881557 230.38909,429.975266 226.654697,432.78778 C222.920303,435.600294 217.334421,437.00653 209.896883,437.00653 C206.084364,437.00653 202.834396,436.74872 200.146883,436.233093 C197.459369,435.717465 194.943769,434.95966 192.600008,433.959655 L192.600008,422.147155 C195.256271,423.397161 198.248429,424.444025 201.576571,425.28778 C204.904712,426.131534 207.834371,426.553405 210.365633,426.553405 C215.55316,426.553405 218.146884,425.05342 218.146884,422.053405 C218.146884,420.928399 217.803137,420.014345 217.115634,419.311217 C216.42813,418.608088 215.240642,417.811221 213.553133,416.920592 C211.978126,416.089338 209.913145,415.128791 207.358136,414.038926 L205.680467,413.324661 C202.217588,411.819413 199.630894,410.416506 197.92032,409.115904 C196.029686,407.678403 194.6547,406.029976 193.79532,404.170591 C192.935941,402.311207 192.506258,400.022167 192.506258,397.303404 C192.506258,392.64713 194.310927,389.045603 197.92032,386.498716 C201.529714,383.951828 206.64685,382.678403 213.271883,382.678403 C219.584415,382.678403 225.724979,384.053389 231.693759,386.803403 L227.381259,397.115904 C224.756246,395.990898 222.303145,395.069032 220.021884,394.350278 C217.740622,393.631525 215.41252,393.272153 213.037508,393.272153 C208.818737,393.272153 206.709383,394.412767 206.709383,396.694029 C206.709383,397.975285 207.389064,399.084649 208.748446,400.022154 C209.96218,400.859211 212.465096,402.057483 216.257259,403.616998 L217.678134,404.194029 C221.771904,405.850287 224.771874,407.397147 226.678134,408.834654 C228.584394,410.272161 229.99063,411.928395 230.896884,413.803404 C231.803139,415.678403 232.256259,417.912766 232.256259,420.506529 Z M265.115636,392.850278 C262.08437,392.850278 259.709394,393.811206 257.990635,395.733091 C256.271877,397.654976 255.287511,400.381511 255.03751,403.912779 L275.100011,403.912779 C275.03751,400.381511 274.115645,397.654976 272.334386,395.733091 C270.553127,393.811206 268.146901,392.850278 265.115636,392.850278 Z M267.131261,437.00653 C258.693718,437.00653 252.100034,434.678428 247.35001,430.022155 C242.599986,425.365881 240.22501,418.772197 240.22501,410.240904 C240.22501,401.45961 242.4203,394.670615 246.810947,389.873716 C251.201594,385.076817 257.271846,382.678403 265.021886,382.678403 C272.428173,382.678403 278.19374,384.787757 282.318761,389.006528 C286.443782,393.225299 288.506261,399.053366 288.506261,406.490904 L288.506261,413.428404 L254.709385,413.428404 C254.865636,417.490925 256.068749,420.662768 258.31876,422.94403 C260.568772,425.225291 263.72499,426.365905 267.787511,426.365905 C270.943777,426.365905 273.928122,426.037783 276.740636,425.38153 C279.55315,424.725276 282.490621,423.678403 285.553136,422.240905 L285.553136,433.303405 C283.053124,434.553411 280.381275,435.48309 277.537511,436.092468 C274.693747,436.701846 271.225031,437.00653 267.131261,437.00653 Z" id="house" fill="#FFFFFF" fill-rule="nonzero"></path>
            <rect id="Rectangle" fill="#CC0000" x="0" y="324.469026" width="295.200012" height="14.4000006"></rect>
            <polygon id="Path-2" fill="#CC0000" points="0.289742099 85.6690162 0.289742099 131.572886 148.200006 78.5480902 148.200006 -2.84217094e-14"></polygon>
            <polygon id="Path-2-Copy" fill="#A50101" transform="translate(221.700009, 65.786443) scale(-1, 1) translate(-221.700009, -65.786443) " points="147.600006 85.6690162 147.600006 131.572886 295.800012 79.0787905 295.51027 -2.84217094e-14"></polygon>
        </g>
    </g>
</svg>